<?xml version="1.0" standalone="no"?>
<!DOCTYPE svg PUBLIC "-//W3C//DTD SVG 20010904//EN"
 "http://www.w3.org/TR/2001/REC-SVG-20010904/DTD/svg10.dtd">
<svg version="1.0" xmlns="http://www.w3.org/2000/svg"
 width="538.000000pt" height="538.000000pt" viewBox="0 0 538.000000 538.000000"
 preserveAspectRatio="xMidYMid meet">
<metadata>
Created by potrace 1.14, written by Peter Selinger 2001-2017
</metadata>
<g transform="translate(0.000000,538.000000) scale(0.100000,-0.100000)"
fill="#000000" stroke="none">
<path d="M2546 5358 c-35 -18 -39 -26 -39 -80 0 -23 -17 -27 -105 -24 -43 1
-77 -3 -82 -9 -12 -14 29 -99 70 -145 69 -77 80 -93 80 -111 0 -25 -4 -24 -79
13 -53 26 -77 32 -138 34 -82 2 -103 -9 -104 -54 -1 -38 -7 -82 -15 -112 -4
-14 -8 -31 -10 -39 -2 -8 -5 -25 -8 -37 -6 -23 13 -46 36 -43 32 4 48 -4 93
-46 37 -36 50 -43 61 -34 8 6 14 18 14 27 0 12 5 11 23 -6 31 -29 51 -28 65 3
16 34 33 31 62 -11 30 -45 30 -123 0 -207 -15 -40 -20 -42 -108 -52 -70 -7
-122 -14 -152 -21 -27 -6 -69 -14 -79 -16 -22 -2 -51 16 -47 31 16 53 14 89
-4 119 -11 18 -28 32 -37 33 -135 8 -157 6 -185 -23 -34 -35 -36 -75 -7 -112
11 -14 17 -26 14 -26 -4 0 -2 -6 4 -14 10 -12 4 -23 -32 -58 -69 -68 -76 -70
-133 -42 -50 25 -164 136 -164 160 0 8 -4 14 -10 14 -5 0 -9 3 -8 8 1 4 -4 20
-10 35 -7 15 -10 42 -8 60 3 18 5 36 5 41 1 5 10 1 22 -9 17 -16 24 -17 51 -7
23 8 35 9 45 1 21 -18 55 -2 106 50 36 37 59 52 90 59 39 7 42 10 41 39 -1 17
-16 52 -33 77 -17 25 -40 66 -51 91 -21 50 -49 67 -91 55 -14 -4 -32 -4 -40 0
-20 11 -112 -15 -175 -50 -51 -28 -54 -28 -43 -8 7 13 17 28 23 35 36 40 81
113 88 140 3 12 0 30 -8 41 -11 17 -24 19 -96 17 -46 -2 -102 -10 -124 -18
-32 -12 -46 -13 -61 -4 -85 49 -88 50 -188 53 -119 3 -184 -18 -185 -58 0 -18
42 -48 69 -48 34 0 67 -40 48 -59 -7 -7 -8 -11 0 -11 6 0 17 -15 24 -32 7 -18
26 -55 41 -81 33 -56 34 -67 9 -67 -10 0 -28 -8 -40 -17 -21 -18 -21 -18 -3
-68 l19 -51 -46 1 c-79 2 -77 1 -73 44 7 68 -6 79 -93 79 -57 0 -81 -5 -98
-18 -18 -15 -42 -18 -118 -18 -108 -1 -169 -18 -169 -50 0 -35 31 -52 93 -50
53 1 60 -1 93 -33 20 -19 59 -67 86 -107 l50 -74 -31 -26 c-16 -15 -31 -36
-32 -47 -7 -55 41 -99 92 -85 15 4 33 4 40 -1 8 -5 11 -9 7 -9 -9 0 37 -78 99
-167 24 -34 43 -66 43 -72 0 -5 3 -11 8 -13 4 -1 23 -23 43 -48 20 -25 46 -55
57 -68 12 -13 18 -30 16 -37 -3 -7 12 -31 34 -54 37 -39 39 -45 39 -102 0 -51
4 -65 21 -78 18 -13 20 -22 14 -45 -4 -16 -17 -34 -27 -40 -65 -37 -87 -63
-92 -110 -5 -41 -2 -48 28 -78 18 -18 33 -35 32 -38 -3 -11 -13 -78 -20 -130
-5 -30 -7 -129 -6 -220 1 -148 4 -222 18 -545 3 -49 7 -168 11 -264 3 -96 7
-188 8 -205 2 -17 -5 -54 -14 -81 -21 -61 -18 -97 14 -168 28 -65 72 -112 149
-161 63 -41 71 -54 108 -190 20 -76 29 -92 54 -108 17 -10 38 -18 48 -18 11 0
17 -8 18 -22 0 -13 3 -32 5 -43 3 -11 7 -94 9 -185 4 -143 2 -173 -15 -225
-35 -109 -42 -201 -16 -238 8 -12 35 -44 60 -70 25 -27 46 -56 46 -65 0 -21
20 -77 42 -117 34 -64 144 -153 234 -191 47 -20 169 -45 289 -60 28 -3 61 -8
75 -10 136 -22 760 -26 760 -4 0 3 14 5 30 4 49 -1 228 25 313 46 81 20 202
81 249 124 43 41 74 87 94 141 24 65 52 108 85 131 61 41 73 133 36 279 -14
55 -26 107 -26 115 -6 107 -6 209 0 270 12 110 15 117 49 124 48 9 76 49 115
167 31 93 41 111 68 128 38 23 129 119 165 174 30 45 34 128 10 187 -7 19 -13
49 -12 65 1 17 4 107 8 200 4 94 9 197 11 230 2 33 7 119 10 190 3 72 8 175
11 230 11 162 7 327 -10 425 -1 8 -6 36 -10 62 -7 43 -6 51 18 79 28 33 32 53
15 96 -11 29 -42 63 -58 63 -18 0 -71 58 -71 79 0 12 4 21 9 21 26 0 41 34 41
89 0 50 4 61 29 85 16 16 35 42 42 60 7 17 29 51 49 76 20 25 58 77 84 115 25
39 54 79 64 91 9 11 32 50 51 85 l34 64 48 0 c36 0 52 5 64 20 23 31 16 76
-19 106 l-30 26 56 84 c80 120 95 132 167 133 96 2 134 53 64 86 -34 16 -169
20 -210 6 -14 -4 -23 -3 -23 3 0 6 -7 11 -15 11 -8 0 -15 4 -15 9 0 8 -27 18
-67 27 -7 1 -13 -2 -13 -7 0 -6 -18 -8 -44 -4 -39 6 -46 4 -56 -14 -6 -12 -8
-39 -5 -61 5 -35 3 -40 -17 -45 -13 -3 -40 -4 -61 -1 -33 4 -39 1 -53 -26 -27
-52 -26 -24 1 35 38 83 40 102 9 115 -14 7 -31 12 -39 12 -8 0 -15 4 -15 9 0
15 81 165 93 173 9 5 9 10 -1 20 -27 27 -4 49 57 53 24 1 51 29 51 52 0 31
-52 48 -155 50 -105 2 -147 -10 -205 -57 l-25 -20 -65 23 c-43 16 -75 21 -95
17 -16 -3 -43 -3 -59 2 -31 8 -56 -8 -56 -38 0 -23 35 -94 58 -120 23 -25 62
-80 62 -88 0 -3 -32 10 -72 31 -64 33 -81 37 -159 39 -100 2 -94 6 -143 -87
-18 -35 -44 -83 -57 -107 -24 -43 -24 -43 -4 -58 11 -8 25 -12 32 -10 7 3 15
1 18 -4 4 -6 13 -10 22 -10 8 0 37 -22 63 -50 47 -49 89 -65 105 -40 4 6 16 5
33 -4 23 -12 29 -12 49 1 30 20 37 12 37 -35 -1 -38 -33 -122 -46 -122 -5 0
-8 -5 -8 -10 0 -12 -9 -24 -52 -71 -15 -16 -32 -29 -38 -29 -5 0 -10 -4 -10
-8 0 -5 -22 -19 -50 -32 -46 -22 -50 -22 -74 -7 -43 29 -109 99 -99 106 19 12
45 98 38 123 -9 26 -44 60 -56 53 -4 -3 -10 -1 -13 4 -4 5 -18 6 -34 2 -15 -5
-36 -5 -47 -1 -25 9 -68 -5 -90 -30 -18 -19 -22 -66 -10 -118 6 -30 -10 -46
-37 -37 -7 2 -29 6 -48 9 -19 3 -46 8 -60 11 -14 3 -47 8 -75 12 -27 3 -59 7
-70 9 -11 1 -34 3 -51 3 -29 1 -33 5 -49 56 -16 52 -23 133 -14 165 2 8 17 26
33 42 l30 27 14 -29 c17 -35 25 -37 62 -10 28 20 28 20 33 0 7 -29 31 -25 64
11 33 35 79 62 93 54 5 -3 18 -1 29 4 16 9 18 16 11 48 -13 56 -20 94 -26 133
-14 101 -16 104 -68 97 -23 -3 -48 -2 -55 2 -15 10 -95 -15 -151 -46 -45 -25
-62 -20 -49 13 5 14 15 31 22 38 6 7 28 32 47 55 19 23 45 54 58 69 43 51 36
104 -13 95 -51 -9 -149 -3 -157 10 -4 7 -8 24 -8 39 0 42 -44 60 -156 62 -73
2 -99 -1 -128 -16z m-1475 -705 c13 -16 12 -17 -3 -4 -10 7 -18 15 -18 17 0 8
8 3 21 -13z m3134 -159 c47 -19 58 -30 73 -73 16 -47 15 -63 -5 -60 -54 5
-100 -27 -109 -76 -3 -16 -7 -31 -10 -34 -2 -2 1 -10 7 -17 7 -9 2 -16 -22
-28 -41 -21 -49 -11 -49 64 0 75 50 232 76 240 1 0 19 -7 39 -16z m-2986 -31
c39 -78 65 -209 52 -260 -6 -21 -8 -21 -36 -8 -24 12 -30 21 -29 48 1 64 -40
107 -102 107 -19 0 -24 4 -20 18 2 9 8 28 12 42 7 24 44 80 44 66 0 -4 10 0
22 8 31 22 35 21 57 -21z m-42 -1085 c-3 -8 -6 -5 -6 6 -1 11 2 17 5 13 3 -3
4 -12 1 -19z"/>
</g>
</svg>
